
        <svg xmlns="http://www.w3.org/2000/svg" xmlns:xlink="http://www.w3.org/1999/xlink" version="1.1" width="2224.9287597260586" 
        height="3171.3404058566366" viewBox="0 0 2224.9287597260586 3171.3404058566366">
			
			<g transform="scale(8.56702029283184) translate(10, 10)">
				<defs id="SvgjsDefs1111"><linearGradient id="SvgjsLinearGradient1120"><stop id="SvgjsStop1121" stop-color="#fe8dc6" offset="0"></stop><stop id="SvgjsStop1122" stop-color="#fed1c7" offset="1"></stop></linearGradient><linearGradient id="SvgjsLinearGradient1123"><stop id="SvgjsStop1124" stop-color="#fe8dc6" offset="0"></stop><stop id="SvgjsStop1125" stop-color="#fed1c7" offset="1"></stop></linearGradient></defs><g id="SvgjsG1112" featureKey="symbolFeature-0" transform="matrix(2.0537280453593056,0,0,2.0537280453593056,14.628844389567968,-28.12534468634054)" fill="url(#SvgjsLinearGradient1120)"><path xmlns="http://www.w3.org/2000/svg" fill-rule="evenodd" clip-rule="evenodd" d="M95.934,26.48l-3.713,8.296c-1.01,1.928-2.794,3.025-5.35,3.293h-1.395  c-1.708-0.105-3.567-0.14-5.577-0.105c-2.429,0.395-4.59,0.912-6.483,1.551c-1.511,0.5-3.027,0.576-4.55,0.227  c-0.615-0.174-1.487-0.512-2.614-1.011c-0.418-0.209-1.487-0.931-3.207-2.162c-1.789-1.29-3.485-2.329-5.089-3.119  c-1.405-0.768-4.101-2.046-8.087-3.835c-2.277-1.104-3.753-2.097-4.426-2.979c-0.663-0.895-0.75-1.976-0.262-3.242  c0.267-0.72,0.808-1.255,1.621-1.604c1.138-0.581,2.498-0.535,4.079,0.14c1.904,0.86,3.224,1.453,3.956,1.778  c1.29,0.581,3.317,1.325,6.082,2.23c0.942,0.291,1.883,0.489,2.823,0.593h1.203l-1.08-0.488c-6.356-2.916-10.533-4.799-12.531-5.647  c-1.952-0.813-3.643-0.941-5.072-0.382c-1.383,0.581-2.335,1.417-2.858,2.509c-0.279,0.616-0.471,1.447-0.575,2.492  c-0.744-0.046-2.26-0.111-4.549-0.192c-4.799,2.313-7.401,3.544-7.808,3.695c-0.941,0.314-1.906,0.488-2.893,0.523  c-1.081-0.024-1.876-0.216-2.388-0.576c-0.604-0.255-1.034-0.895-1.29-1.917c-0.175-1.047,0.737-2.179,2.736-3.399l10.596-6.867  c5.101-0.603,10.08-1.423,14.937-2.457c1.068-0.244,2.103-0.145,3.102,0.296c3.115,1.604,6.659,3.23,10.632,4.88  c1.977,0.813,3.887,1.575,5.734,2.284c3.277,1.057,6.024,1.667,8.244,1.83h0.018c2.439,0.023,7.784-0.941,16.034-2.894  C98.606,19.631,98.606,21.717,95.934,26.48z"></path><path xmlns="http://www.w3.org/2000/svg" fill-rule="evenodd" clip-rule="evenodd" d="M25.73,31.831c3.405,5.019,6.298,10.091,8.68,15.215  c3.764,8.168,5.49,15.047,5.176,20.636c-0.058,0.302-0.209,0.604-0.453,0.906c-0.348,0.384-0.604,0.61-0.767,0.68  c-4.276,1.371-8.511,1.731-12.706,1.081c-6.309-1.139-11.741-4.619-16.295-10.439c0.825-7.576,2.347-13.485,4.566-17.726  l2.962-4.113C19.567,35.154,22.512,33.075,25.73,31.831z"></path><path xmlns="http://www.w3.org/2000/svg" fill-rule="evenodd" clip-rule="evenodd" d="M79.011,48.388c-0.709-0.917-1.587-1.476-2.632-1.672  c-9.572,0.235-14.992-1.101-16.261-4.009c-2.406-5.798-6.397-9.499-11.974-11.102c-5.577-1.592-11.648-0.93-18.213,1.986  c2.893,4.613,5.287,9.132,7.18,13.56c3.509,7.878,5.072,14.617,4.688,20.218c0,1.022-0.389,1.992-1.167,2.91  c-0.686,0.93-1.511,1.546-2.475,1.849c-3.01,1.01-7.129,1.301-12.357,0.871c-5.24-0.442-10.904-3.167-16.993-8.175  c-1.385,6.83-2.799,11.271-4.244,13.324c14.306,8.29,28.217,12.767,41.733,13.429c2.091-7.355,3.184-11.137,3.277-11.346  c0.523-1.36,0.837-2.133,0.941-2.318c0.244-0.406,0.546-0.784,0.906-1.133c0.789-0.778,1.69-1.243,2.702-1.395  c5.959-0.813,11.095-2.66,15.406-5.542c6.519-4.321,9.997-10.521,10.439-18.597C80.063,50.224,79.742,49.271,79.011,48.388z   M53.181,50.445c-0.686,0.674-1.51,1.01-2.475,1.01c-0.988,0-1.818-0.336-2.493-1.01c-0.685-0.674-1.028-1.505-1.028-2.492  c0-0.977,0.343-1.802,1.028-2.475c0.674-0.674,1.504-1.012,2.493-1.012c0.965,0,1.789,0.337,2.475,1.012  c0.675,0.673,1.012,1.498,1.012,2.475C54.192,48.939,53.855,49.771,53.181,50.445z"></path></g><g id="SvgjsG1113" featureKey="nameFeature-0" transform="matrix(0.9959639237776965,0,0,0.9959639237776965,-2.4699891252273702,176.85275462774712)" fill="#ffffff"><path d="M2.48 40 l0 -28 l12 0 c7.08 0 11.64 3.64 11.64 9.84 l0 0.08 c0 6.6 -5.08 10.08 -12.04 10.08 l-3.84 0 l0 8 l-7.76 0 z M10.24 25.92 l3.68 0 c2.76 0 4.44 -1.44 4.44 -3.64 l0 -0.08 c0 -2.4 -1.68 -3.68 -4.48 -3.68 l-3.64 0 l0 7.4 z M29.400000000000002 40 l0 -28 l13.24 0 c4.28 0 7.24 1.12 9.12 3.04 c1.64 1.6 2.48 3.76 2.48 6.52 l0 0.08 c0 4.28 -2.28 7.12 -5.76 8.6 l6.68 9.76 l-8.96 0 l-5.64 -8.48 l-0.08 0 l-3.32 0 l0 8.48 l-7.76 0 z M37.160000000000004 25.439999999999998 l5.12 0 c2.64 0 4.16 -1.28 4.16 -3.32 l0 -0.08 c0 -2.2 -1.6 -3.32 -4.2 -3.32 l-5.08 0 l0 6.72 z M72.24000000000001 40.56 c-8.64 0 -15.04 -6.44 -15.04 -14.48 l0 -0.08 c0 -8.04 6.48 -14.56 15.12 -14.56 s15.04 6.44 15.04 14.48 l0 0.08 c0 8.04 -6.48 14.56 -15.12 14.56 z M72.32000000000001 33.56 c4.28 0 7.12 -3.44 7.12 -7.48 l0 -0.08 c0 -4.04 -2.92 -7.56 -7.2 -7.56 c-4.24 0 -7.08 3.44 -7.08 7.48 l0 0.08 c0 4.04 2.92 7.56 7.16 7.56 z M91.40000000000002 40 l0 -28 l22.4 0 l0 6.8 l-14.64 0 l0 4.76 l13.24 0 l0 6.44 l-13.24 0 l0 10 l-7.76 0 z M117.48000000000002 40 l0 -28 l7.8 0 l0 28 l-7.8 0 z M141.4 40.48 c-4.96 0 -9.68 -1.56 -13.12 -4.64 l4.32 -5.16 c2.76 2.2 5.84 3.36 9.08 3.36 c2.08 0 3.2 -0.72 3.2 -1.92 l0 -0.08 c0 -1.16 -0.92 -1.8 -4.72 -2.68 c-5.96 -1.36 -10.56 -3.04 -10.56 -8.8 l0 -0.08 c0 -5.2 4.12 -8.96 10.84 -8.96 c4.76 0 8.48 1.28 11.52 3.72 l-3.88 5.48 c-2.56 -1.8 -5.36 -2.76 -7.84 -2.76 c-1.88 0 -2.8 0.8 -2.8 1.8 l0 0.08 c0 1.28 0.96 1.84 4.84 2.72 c6.44 1.4 10.44 3.48 10.44 8.72 l0 0.08 c0 5.72 -4.52 9.12 -11.32 9.12 z M167.08 40.48 c-4.96 0 -9.68 -1.56 -13.12 -4.64 l4.32 -5.16 c2.76 2.2 5.84 3.36 9.08 3.36 c2.08 0 3.2 -0.72 3.2 -1.92 l0 -0.08 c0 -1.16 -0.92 -1.8 -4.72 -2.68 c-5.96 -1.36 -10.56 -3.04 -10.56 -8.8 l0 -0.08 c0 -5.2 4.12 -8.96 10.84 -8.96 c4.76 0 8.48 1.28 11.52 3.72 l-3.88 5.48 c-2.56 -1.8 -5.36 -2.76 -7.84 -2.76 c-1.88 0 -2.8 0.8 -2.8 1.8 l0 0.08 c0 1.28 0.96 1.84 4.84 2.72 c6.44 1.4 10.44 3.48 10.44 8.72 l0 0.08 c0 5.72 -4.52 9.12 -11.32 9.12 z M179.92000000000004 40 l11.92 -28.2 l7.48 0 l11.92 28.2 l-8.32 0 l-2.04 -5 l-10.8 0 l-2 5 l-8.16 0 z M192.36000000000004 28.96 l6.28 0 l-3.12 -7.96 z M190.80000000000004 10.399999999999999 l-3.64 -1 c0.84 -3.96 2.2 -5.96 4.96 -5.96 c2.4 0 4.96 1.56 6.24 1.56 c1.12 0 1.52 -0.6 2.04 -1.84 l3.64 1 c-0.84 3.96 -2.2 5.96 -4.96 5.96 c-2.4 0 -4.96 -1.56 -6.24 -1.56 c-1.12 0 -1.52 0.6 -2.04 1.84 z M228.04000000000005 40.56 c-8.64 0 -15.04 -6.44 -15.04 -14.48 l0 -0.08 c0 -8.04 6.48 -14.56 15.12 -14.56 s15.04 6.44 15.04 14.48 l0 0.08 c0 8.04 -6.48 14.56 -15.12 14.56 z M228.12000000000006 33.56 c4.28 0 7.12 -3.44 7.12 -7.48 l0 -0.08 c0 -4.04 -2.92 -7.56 -7.2 -7.56 c-4.24 0 -7.08 3.44 -7.08 7.48 l0 0.08 c0 4.04 2.92 7.56 7.16 7.56 z"></path></g><g id="SvgjsG1114" featureKey="nameFeature-1" transform="matrix(3.1293550216080313,0,0,3.1293550216080313,-7.760796036697362,189.44774272508914)" fill="#ffffff"><path d="M2.48 40 l0 -28 l12 0 c7.08 0 11.64 3.64 11.64 9.84 l0 0.08 c0 6.6 -5.08 10.08 -12.04 10.08 l-3.84 0 l0 8 l-7.76 0 z M10.24 25.92 l3.68 0 c2.76 0 4.44 -1.44 4.44 -3.64 l0 -0.08 c0 -2.4 -1.68 -3.68 -4.48 -3.68 l-3.64 0 l0 7.4 z M29.400000000000002 40 l0 -28 l22.52 0 l0 6.6 l-14.84 0 l0 4.24 l13.44 0 l0 6.12 l-13.44 0 l0 4.44 l15.04 0 l0 6.6 l-22.72 0 z M62.92 40 l0 -21.2 l-8.4 0 l0 -6.8 l24.56 0 l0 6.8 l-8.4 0 l0 21.2 l-7.76 0 z"></path></g><g id="SvgjsG1115" featureKey="sloganFeature-0" transform="matrix(1.042589004223724,0,0,1.042589004223724,4.874889314521702,329.03639012029385)" fill="url(#SvgjsLinearGradient1123)"><path d="M0.12 20 l5.96 -14.1 l3.74 0 l5.96 14.1 l-4.16 0 l-1.02 -2.5 l-5.4 0 l-1 2.5 l-4.08 0 z M6.34 14.48 l3.14 0 l-1.56 -3.98 z M17.14 20 l0 -14 l6 0 c3.54 0 5.82 1.82 5.82 4.92 l0 0.04 c0 3.3 -2.54 5.04 -6.02 5.04 l-1.92 0 l0 4 l-3.88 0 z M21.02 12.96 l1.84 0 c1.38 0 2.22 -0.72 2.22 -1.82 l0 -0.04 c0 -1.2 -0.84 -1.84 -2.24 -1.84 l-1.82 0 l0 3.7 z M30.599999999999998 20 l0 -14 l6.62 0 c2.14 0 3.62 0.56 4.56 1.52 c0.82 0.8 1.24 1.88 1.24 3.26 l0 0.04 c0 2.14 -1.14 3.56 -2.88 4.3 l3.34 4.88 l-4.48 0 l-2.82 -4.24 l-0.04 0 l-1.66 0 l0 4.24 l-3.88 0 z M34.48 12.719999999999999 l2.56 0 c1.32 0 2.08 -0.64 2.08 -1.66 l0 -0.04 c0 -1.1 -0.8 -1.66 -2.1 -1.66 l-2.54 0 l0 3.36 z M44.980000000000004 20 l0 -14 l11.26 0 l0 3.3 l-7.42 0 l0 2.12 l6.72 0 l0 3.06 l-6.72 0 l0 2.22 l7.52 0 l0 3.3 l-11.36 0 z M58.32 20 l0 -14 l3.62 0 l5.76 7.4 l0 -7.4 l3.84 0 l0 14 l-3.4 0 l-5.98 -7.68 l0 7.68 l-3.84 0 z M74.02 20 l0 -14 l5.4 0 c5 0 7.9 2.88 7.9 6.92 l0 0.04 c0 4.04 -2.94 7.04 -7.98 7.04 l-5.32 0 z M77.9 16.56 l1.58 0 c2.32 0 3.86 -1.28 3.86 -3.54 l0 -0.04 c0 -2.24 -1.54 -3.54 -3.86 -3.54 l-1.58 0 l0 7.12 z M89.32 20 l0 -14 l11.26 0 l0 3.3 l-7.42 0 l0 2.12 l6.72 0 l0 3.06 l-6.72 0 l0 2.22 l7.52 0 l0 3.3 l-11.36 0 z M102.66 20 l0 -14 l6.62 0 c2.14 0 3.62 0.56 4.56 1.52 c0.82 0.8 1.24 1.88 1.24 3.26 l0 0.04 c0 2.14 -1.14 3.56 -2.88 4.3 l3.34 4.88 l-4.48 0 l-2.82 -4.24 l-0.04 0 l-1.66 0 l0 4.24 l-3.88 0 z M106.54 12.719999999999999 l2.56 0 c1.32 0 2.08 -0.64 2.08 -1.66 l0 -0.04 c0 -1.1 -0.8 -1.66 -2.1 -1.66 l-2.54 0 l0 3.36 z M122.58 20 l0 -14 l11.26 0 l0 3.3 l-7.42 0 l0 2.12 l6.72 0 l0 3.06 l-6.72 0 l0 2.22 l7.52 0 l0 3.3 l-11.36 0 z M148.2 20.28 c-4 0 -7.22 -3.06 -7.22 -7.24 l0 -0.04 c0 -4.08 3.14 -7.28 7.38 -7.28 c2.86 0 4.7 1.2 5.94 2.92 l-2.92 2.26 c-0.8 -1 -1.72 -1.64 -3.06 -1.64 c-1.96 0 -3.34 1.66 -3.34 3.7 l0 0.04 c0 2.1 1.38 3.74 3.34 3.74 c1.46 0 2.32 -0.68 3.16 -1.7 l2.92 2.08 c-1.32 1.82 -3.1 3.16 -6.2 3.16 z M162.35999999999999 20.26 c-3.98 0 -6.48 -2.02 -6.48 -6.4 l0 -7.86 l3.94 0 l0 7.78 c0 2.02 1.02 2.98 2.58 2.98 s2.58 -0.92 2.58 -2.88 l0 -7.88 l3.94 0 l0 7.76 c0 4.52 -2.58 6.5 -6.56 6.5 z M171.29999999999998 20 l0 -14 l3.9 0 l0 14 l-3.9 0 z M177.76 20 l0 -14 l5.4 0 c5 0 7.9 2.88 7.9 6.92 l0 0.04 c0 4.04 -2.94 7.04 -7.98 7.04 l-5.32 0 z M181.64 16.56 l1.58 0 c2.32 0 3.86 -1.28 3.86 -3.54 l0 -0.04 c0 -2.24 -1.54 -3.54 -3.86 -3.54 l-1.58 0 l0 7.12 z M190.94 20 l5.96 -14.1 l3.74 0 l5.96 14.1 l-4.16 0 l-1.02 -2.5 l-5.4 0 l-1 2.5 l-4.08 0 z M197.16 14.48 l3.14 0 l-1.56 -3.98 z M207.96 20 l0 -14 l6.62 0 c2.14 0 3.62 0.56 4.56 1.52 c0.82 0.8 1.24 1.88 1.24 3.26 l0 0.04 c0 2.14 -1.14 3.56 -2.88 4.3 l3.34 4.88 l-4.48 0 l-2.82 -4.24 l-0.04 0 l-1.66 0 l0 4.24 l-3.88 0 z M211.84 12.719999999999999 l2.56 0 c1.32 0 2.08 -0.64 2.08 -1.66 l0 -0.04 c0 -1.1 -0.8 -1.66 -2.1 -1.66 l-2.54 0 l0 3.36 z"></path></g>
			</g>
		</svg>
	
